
<svg width="1024" height="1024" viewBox="0 -64 1024 1024" xmlns="http://www.w3.org/2000/svg" xmlns:svg="http://www.w3.org/2000/svg">
  <path
    d="M512 704c-140.8 0-256-115.2-256-256s115.2-256 256-256c140.8 0 256 115.2 256 256s-115.2 256-256 256zM512 256c-108.8 0-192 83.2-192 192s83.2 192 192 192c108.8 0 192-83.2 192-192s-83.2-192-192-192zM480 896h64v-128h-64v128zM480 128h64v-128h-64v128zM832 480h128v-64h-128v64zM64 480h128v-64h-128v64zM715.645 693.036l90.509 90.509 45.254-45.254-90.509-90.509-45.254 45.254zM172.579 157.709l90.509 90.509 45.254-45.254-90.509-90.509-45.254 45.254zM711.775 199.094l45.254 45.254 90.509-90.509-45.254-45.254-90.509 90.509zM176.449 742.16l45.254 45.254 90.509-90.509-45.254-45.254-90.509 90.509z"
    fill="#777777"
  />
</svg>