<?xml version="1.0" encoding="utf-8"?>
<!-- Generator: Adobe Illustrator 21.1.0, SVG Export Plug-In . SVG Version: 6.00 Build 0)  -->
<svg version="1.1" id="图层_1" xmlns="http://www.w3.org/2000/svg" xmlns:xlink="http://www.w3.org/1999/xlink" x="0px" y="0px"
	 width="16px" height="16px" viewBox="0 0 16 16" style="enable-background:new 0 0 16 16;" xml:space="preserve">
<path fill="#777777" d="M8,0.7C3.9,0.7,0.5,4,0.5,8.2c0,3.3,2.1,6.1,5.1,7.1c0.4,0.1,0.5-0.2,0.5-0.4c0-0.2,0-0.8,0-1.4c-1.9,0.3-2.4-0.5-2.5-0.9
	c-0.1-0.2-0.5-0.9-0.8-1.1c-0.3-0.1-0.6-0.5,0-0.5c0.6,0,1,0.5,1.2,0.8c0.7,1.1,1.8,0.8,2.2,0.6c0.1-0.5,0.3-0.8,0.5-1
	C5,11.3,3.2,10.7,3.2,7.8c0-0.8,0.3-1.5,0.8-2c-0.1-0.2-0.3-1,0.1-2c0,0,0.6-0.2,2.1,0.8C6.7,4.4,7.4,4.3,8,4.3
	c0.6,0,1.3,0.1,1.9,0.3c1.4-1,2.1-0.8,2.1-0.8c0.4,1,0.1,1.8,0.1,2c0.5,0.5,0.8,1.2,0.8,2c0,2.9-1.8,3.5-3.4,3.7
	c0.3,0.2,0.5,0.7,0.5,1.4c0,1,0,1.8,0,2.1c0,0.2,0.1,0.4,0.5,0.4c3.1-1,5.1-3.9,5.1-7.1C15.5,4,12.1,0.7,8,0.7z"/>
</svg>
