
<svg width="1024" height="1024" viewBox="0 -64 1024 1024" xmlns="http://www.w3.org/2000/svg" xmlns:svg="http://www.w3.org/2000/svg">
  <path
    d="M768 448c0-141.385-114.615-256-256-256s-256 114.615-256 256c0 141.385 114.615 256 256 256s256-114.615 256-256zM480 896h64v-128h-64v128zM480 128h64v-128h-64v128zM832 480h128v-64h-128v64zM64 480h128v-64h-128v64zM715.645 693.036l90.509 90.509 45.254-45.254-90.509-90.509-45.254 45.254zM172.579 157.709l90.509 90.509 45.254-45.254-90.509-90.509-45.254 45.254zM711.775 199.094l45.254 45.254 90.509-90.509-45.254-45.254-90.509 90.509zM176.449 742.16l45.254 45.254 90.509-90.509-45.254-45.254-90.509 90.509z"
    fill="#333333"
  />
</svg>